# xmcd
#
# Track frame offsets: 
#        150
#        18250
#        35542
#        49152
#        67647
#        91137
#        108320
#        125867
#        145920
#        159315
#        173365
#        191885
#
# Disc length: 2776 seconds
#
# Revision: 2
# Processed by: cddbd v1.5.2PL0 Copyright (c) Steve Scherf et al.
# Submitted via: ExactAudioCopyFreeDBPlugin 1.0
#
DISCID=960ad60c
DTITLE=Big Daddy Kinsey and The Kinsey Report - Bad Situation
DYEAR=1997
DGENRE=
TTITLE0=Bad situation
TTITLE1=Treat Your Woman Right
TTITLE2=Slow Down
TTITLE3=Gary, Indiana
TTITLE4=Gonna Make You Mine
TTITLE5=Nuclear War Blues
TTITLE6=Change Your Evil Ways
TTITLE7=Tribute To Muddy
TTITLE8=You're Gonna Miss Me
TTITLE9=Kinsey's Mood
TTITLE10=Hard Life
TTITLE11=Sharp Axe
EXTD=
EXTT0=
EXTT1=
EXTT2=
EXTT3=
EXTT4=
EXTT5=
EXTT6=
EXTT7=
EXTT8=
EXTT9=
EXTT10=
EXTT11=
PLAYORDER=
